<svg width="18" height="18" viewBox="0 0 18 18" fill="none" xmlns="http://www.w3.org/2000/svg">
<path d="M4.34469 9.49395L12.6702 17.7964C12.943 18.0683 13.3846 18.0679 13.6569 17.795C13.9291 17.5223 13.9283 17.0804 13.6555 16.8083L5.82557 8.99997L13.6558 1.19165C13.9286 0.919546 13.9293 0.47795 13.6572 0.205139C13.5925 0.140038 13.5154 0.0883969 13.4306 0.0531902C13.3458 0.0179835 13.2549 -9.35835e-05 13.163 2.20703e-06C13.0715 -0.00011198 12.9809 0.0178246 12.8963 0.0527836C12.8118 0.0877426 12.735 0.139038 12.6702 0.203732L4.34469 8.50603C4.21331 8.63674 4.13959 8.81463 4.13959 8.99997C4.13959 9.18531 4.21352 9.36299 4.34469 9.49395Z" fill="#E1E1E1"/>
</svg>
