<svg width="1920" height="521" viewBox="0 0 1920 521" fill="none" xmlns="http://www.w3.org/2000/svg">
<g clip-path="url(#clip0_414_2301)">
<path d="M1194.38 202.737C1169.34 86.6446 1069.73 0 950.517 0C812.253 0 700.117 116.659 700.117 260.5C700.117 404.341 812.253 521 950.517 521C1069.73 521 1169.34 434.355 1194.93 318.263V521H1282.02V0H1194.93V202.737H1194.38ZM950.517 430.391C860.7 430.391 787.213 354.507 787.213 260.5C787.213 167.06 860.155 90.6087 950.517 90.6087C1040.88 90.6087 1113.82 166.493 1113.82 260.5C1113.28 353.94 1040.33 430.391 950.517 430.391Z" fill="#B9B9B9" fill-opacity="0.2"/>
<path d="M1757.28 260.5C1757.28 167.06 1830.22 90.6087 1920.58 90.6087V0C1782.32 0 1670.18 116.659 1670.18 260.5C1670.18 404.341 1782.32 521 1920.58 521V430.391C1830.22 430.391 1757.28 353.94 1757.28 260.5Z" fill="#B9B9B9" fill-opacity="0.2"/>
<path d="M1411.03 202.737V0H1323.94V521H1411.03V259.934H1492.14C1492.68 166.493 1565.63 91.175 1655.44 91.175V0C1536.23 0 1436.62 86.6446 1411.03 202.737Z" fill="#B9B9B9" fill-opacity="0.2"/>
<path d="M670.724 0L426.857 436.054V0H339.217H329.963L86.0955 436.054V0H-1V521H38.7373H86.0955H135.087L339.217 156.3V521H378.954H426.857H475.303L767.073 0H670.724Z" fill="#B9B9B9" fill-opacity="0.2"/>
</g>
<defs>
<clipPath id="clip0_414_2301">
<rect width="1921" height="521" fill="white" transform="translate(-1)"/>
</clipPath>
</defs>
</svg>
