<svg width="14" height="14" viewBox="0 0 14 14" fill="none" xmlns="http://www.w3.org/2000/svg">
<path d="M1.05146 13.4628C0.920263 13.4628 0.789063 13.4132 0.689063 13.3132C0.489062 13.1132 0.489062 12.7892 0.689063 12.5892L12.5931 0.685156C12.7931 0.485156 13.1171 0.485156 13.3171 0.685156C13.5171 0.885156 13.5171 1.20916 13.3171 1.40916L1.41386 13.3132C1.31386 13.4132 1.18266 13.4628 1.05146 13.4628Z" fill="white"/>
<path d="M12.9537 12.3056C12.6713 12.3056 12.4417 12.076 12.4417 11.7936V1.55916H2.20731C1.92491 1.55916 1.69531 1.32956 1.69531 1.04716C1.69531 0.764756 1.92491 0.535156 2.20731 0.535156H12.9537C13.2361 0.535156 13.4657 0.764756 13.4657 1.04716V11.7936C13.4657 12.076 13.2361 12.3056 12.9537 12.3056Z" fill="white"/>
</svg>
