<svg width="18" height="18" viewBox="0 0 18 18" fill="none" xmlns="http://www.w3.org/2000/svg">
<path d="M13.6553 8.50605L5.32978 0.20355C5.05701 -0.0683123 4.61538 -0.0678552 4.34306 0.204956C4.07095 0.477733 4.07165 0.91961 4.34446 1.19168L12.1744 9.00003L4.34419 16.8083C4.07141 17.0805 4.07071 17.522 4.34278 17.7949C4.40755 17.86 4.48456 17.9116 4.56938 17.9468C4.65419 17.982 4.74514 18.0001 4.83697 18C4.92847 18.0001 5.01909 17.9822 5.10365 17.9472C5.18821 17.9123 5.26505 17.861 5.32975 17.7963L13.6553 9.49397C13.7867 9.36326 13.8604 9.18537 13.8604 9.00003C13.8604 8.81469 13.7865 8.63701 13.6553 8.50605Z" fill="#E1E1E1"/>
</svg>
